General
Complete name : The Da Vinci Code(2006)Hindi-DVDRip.aaaevilacharya.mkv
Format : Matroska
File size : 753 MiB
Duration : 2h 19mn
Overall bit rate : 757 Kbps
Encoded date : UTC 2010-10-25 15:57:47

Video
ID : 1
Format : MPEG-4 Visual
Format profile : Advanced Simple@L5
Format settings, Matrix : Default (H.263)
Codec ID : XVID
Codec ID/Hint : XviD
Duration : 2h 19mn
Bit rate : 630 Kbps
Width : 720 pixels
Height : 392 pixels
Display aspect ratio : 16:9
Original display aspect ratio : 4:3
Frame rate : 25.000 fps
Color space : YUV
Chroma subsampling : 4:2:0
Bit depth : 8 bits
Scan type : Progressive
Bits/(Pixel*Frame) : 0.093
Stream size : 627 MiB (83%)
Title : tdvc

Language : hindi

Audio
ID : 2
Format : MPEG Audio
Format version : Version 1
Format profile : Layer 3
Mode : Joint stereo
Mode extension : MS Stereo
Codec ID : A_MPEG/L3
Codec ID/Hint : MP3
Duration : 2h 19mn
Bit rate mode : Constant
Bit rate : 112 Kbps
Channel(s) : 2 channels
Sampling rate : 44.1 KHz
Stream size : 111 MiB (15%)
Title : aaaevilacharya hindi

Language : Hindi

screenshots
 
http://img215.imageshack.us/img215/5314/vlcsnap2010102512h03m59.png
 
http://img87.imageshack.us/img87/6449/thedavincicode2006dutch.jpg
 
http://img651.imageshack.us/img651/582/vlcsnap2010102512h01m56.png
 
http://img46.imageshack.us/img46/797/vlcsnap2010102512h02m19.png
 
http://img814.imageshack.us/img814/8100/vlcsnap2010102512h03m21.png
 
http://img697.imageshack.us/img697/2935/vlcsnap2010102512h03m29.png
